<?xml version="1.0" encoding="UTF-8"?>
<svg width="96px" height="96px" viewBox="0 0 96 96" version="1.1" xmlns="http://www.w3.org/2000/svg" xmlns:xlink="http://www.w3.org/1999/xlink">
    <!-- Generator: Sketch 55.2 (78181) - https://sketchapp.com -->
    <title>no-result</title>
    <desc>Created with Sketch.</desc>
    <g id="no-result" stroke="none" stroke-width="1" fill="none" fill-rule="evenodd">
        <path d="M62,56 L58.84,56 L57.72,54.92 C62.52,49.32 65,41.68 63.64,33.56 C61.76,22.44 52.48,13.56 41.28,12.2 C24.36,10.12 10.12,24.36 12.2,41.28 C13.56,52.48 22.44,61.76 33.56,63.64 C41.68,65 49.32,62.52 54.92,57.72 L56,58.84 L56,62 L73,79 C74.64,80.64 77.32,80.64 78.96,79 C80.6,77.36 80.6,74.68 78.96,73.04 L62,56 Z M38,56 C28.04,56 20,47.96 20,38 C20,28.04 28.04,20 38,20 C47.96,20 56,28.04 56,38 C56,47.96 47.96,56 38,56 Z" id="Shape" fill-opacity="0.16" fill="#0E6DB0" fill-rule="nonzero"></path>
        <path d="M40,50 L36,50 L36,47 L40,47 L40,50 Z M43.3432663,36.620464 L41.7438182,38.1855768 C40.8552359,39.0531937 40.2154566,39.8357501 39.895567,41.0606211 C39.7533939,41.6050081 39.6645356,42.2174436 39.6645356,43 L36.1102065,43 L36.1102065,42.1493952 C36.1102065,41.3668388 36.2523796,40.6183066 36.5011827,39.9208106 C36.8566156,38.9341091 37.4430799,38.0494801 38.189489,37.334972 L40.3931731,35.1914479 C41.2106688,34.4429157 41.601645,33.3201174 41.3706136,32.1292706 C41.1395822,30.9043997 40.1443701,29.8666619 38.9003549,29.52642 C36.9277022,28.999045 35.0972226,30.070807 34.5107583,31.6869561 C34.2974986,32.3164037 33.7465776,32.7927424 33.0534834,32.7927424 L32.520334,32.7927424 C31.4895785,32.7927424 30.7787127,31.840065 31.063059,30.8873876 C31.8272398,28.3866095 34.0486955,26.4812548 36.8033006,26.0729645 C39.5045908,25.6646742 42.0814795,27.0086297 43.6809276,29.1351417 C45.7779818,31.9081134 45.1559742,34.8852302 43.3432663,36.620464 Z" id="Combined-Shape" fill-opacity="0.4" fill="#0E6DB0"></path>
    </g>
</svg>